<svg xmlns="http://www.w3.org/2000/svg" height="16" width="16">
    <g transform="translate(0,-1036.3622)">
        <g transform="matrix(0,-1,1,0,-1036.3622,1052.3622)">
            <path d="M 1,1 8,2.5 8,13.5 1,15 z"
                  style="fill:none;stroke:#000000;stroke-width:1px;stroke-linecap:butt;stroke-linejoin:miter;stroke-opacity:1"
                  transform="translate(0,1036.3622)"/>
            <g transform="translate(16.25,1)">
                <path d="m -11.75,9 2,-2 -2,-2"
                      style="fill:none;stroke:#000000;stroke-width:1px;stroke-linecap:butt;stroke-linejoin:miter;stroke-opacity:1"
                      transform="translate(0,1036.3622)"/>
                <path d="m -13.75,7 4,0"
                      style="fill:none;stroke:#000000;stroke-width:1px;stroke-linecap:butt;stroke-linejoin:miter;stroke-opacity:1"
                      transform="translate(0,1036.3622)"/>
            </g>
        </g>
        <g transform="matrix(0,1,1,0,-1036.3622,1036.3622)">
            <path d="M 1,1 8,2.5 8,13.5 1,15 z"
                  style="fill:none;stroke:#000000;stroke-width:1px;stroke-linecap:butt;stroke-linejoin:miter;stroke-opacity:1"
                  transform="translate(0,1036.3622)"/>
            <g transform="translate(16.25,1)">
                <path d="m -11.75,9 2,-2 -2,-2"
                      style="fill:none;stroke:#000000;stroke-width:1px;stroke-linecap:butt;stroke-linejoin:miter;stroke-opacity:1"
                      transform="translate(0,1036.3622)"/>
                <path d="m -13.75,7 4,0"
                      style="fill:none;stroke:#000000;stroke-width:1px;stroke-linecap:butt;stroke-linejoin:miter;stroke-opacity:1"
                      transform="translate(0,1036.3622)"/>
            </g>
        </g>
    </g>
</svg>